<svg width="22" height="22" viewBox="0 0 22 22" fill="none" xmlns="http://www.w3.org/2000/svg">
<path d="M15.6746 12.8462C16.0581 12.4716 16.1129 11.9365 15.7842 11.4013C15.5102 10.9732 15.0172 10.7592 14.4693 10.8662C14.2502 10.9197 14.0311 11.0268 13.8119 11.1873C12.1136 12.311 9.81266 12.2575 8.11434 11.1338C8.00477 11.0803 7.8952 11.0268 7.78563 10.9732C7.183 10.7057 6.58038 10.8127 6.25167 11.3478C5.86818 11.883 5.92296 12.4716 6.41602 12.9532C6.52558 13.0602 6.63515 13.1137 6.68994 13.2207L6.74473 13.2742C7.51171 13.8629 8.44305 14.2375 9.64831 14.398L8.93611 15.0937C8.33348 15.6823 7.67607 16.3244 7.07344 16.913C6.90908 17.0736 6.68994 17.3411 6.68994 17.7157C6.68994 18.1973 6.96387 18.6789 7.45693 18.893C7.62128 19 7.78563 19 7.94998 19C8.22391 19 8.55261 18.893 8.77175 18.6254C9.59352 17.8227 10.2509 17.1806 10.9083 16.5385C10.9631 16.485 10.9631 16.485 10.9631 16.485C10.9631 16.485 11.0179 16.485 11.0179 16.5385C11.4562 17.0201 11.9493 17.4482 12.3875 17.9298C12.6067 18.1438 12.8258 18.3579 13.0449 18.5719C13.3189 18.8395 13.538 18.9465 13.8667 18.9465C14.3598 19 14.9076 18.6789 15.1268 18.1973C15.3459 17.7692 15.2363 17.2341 14.8528 16.913C14.305 16.3779 13.7571 15.7893 13.1545 15.2542L12.2232 14.3445C12.7162 14.291 13.2641 14.184 13.7571 13.9699C14.5789 13.7023 15.1815 13.3278 15.6746 12.8462Z" fill="#EE8302"/>
<path d="M10.9631 11.3478C13.3189 11.3478 15.2363 9.52842 15.2363 7.22742C15.2363 6.10367 14.798 5.03345 13.9763 4.23077C13.1545 3.4281 12.1136 3 11.0179 3C8.66218 3 6.79951 4.87291 6.74473 7.1204C6.74473 8.24414 7.183 9.26087 8.00477 10.0635C8.77175 10.9197 9.81265 11.3478 10.9631 11.3478ZM9.75787 5.99666C10.0866 5.67559 10.5249 5.51505 10.9631 5.51505C11.9492 5.51505 12.6615 6.26421 12.6615 7.17391C12.6615 8.13712 11.8945 8.83277 10.9631 8.83277C9.97701 8.83277 9.26481 8.08361 9.26481 7.17391C9.26481 6.74582 9.42916 6.31773 9.75787 5.99666Z" fill="#EE8302"/>
<path d="M15.6746 12.8462C16.0581 12.4716 16.1129 11.9365 15.7842 11.4013C15.5102 10.9732 15.0172 10.7592 14.4693 10.8662C14.2502 10.9197 14.0311 11.0268 13.8119 11.1873C12.1136 12.311 9.81266 12.2575 8.11434 11.1338C8.00477 11.0803 7.8952 11.0268 7.78563 10.9732C7.183 10.7057 6.58038 10.8127 6.25167 11.3478C5.86818 11.883 5.92296 12.4716 6.41602 12.9532C6.52558 13.0602 6.63515 13.1137 6.68994 13.2207L6.74473 13.2742C7.51171 13.8629 8.44305 14.2375 9.64831 14.398L8.93611 15.0937C8.33348 15.6823 7.67607 16.3244 7.07344 16.913C6.90908 17.0736 6.68994 17.3411 6.68994 17.7157C6.68994 18.1973 6.96387 18.6789 7.45693 18.893C7.62128 19 7.78563 19 7.94998 19C8.22391 19 8.55261 18.893 8.77175 18.6254C9.59352 17.8227 10.2509 17.1806 10.9083 16.5385C10.9631 16.485 10.9631 16.485 10.9631 16.485C10.9631 16.485 11.0179 16.485 11.0179 16.5385C11.4562 17.0201 11.9493 17.4482 12.3875 17.9298C12.6067 18.1438 12.8258 18.3579 13.0449 18.5719C13.3189 18.8395 13.538 18.9465 13.8667 18.9465C14.3598 19 14.9076 18.6789 15.1268 18.1973C15.3459 17.7692 15.2363 17.2341 14.8528 16.913C14.305 16.3779 13.7571 15.7893 13.1545 15.2542L12.2232 14.3445C12.7162 14.291 13.2641 14.184 13.7571 13.9699C14.5789 13.7023 15.1815 13.3278 15.6746 12.8462Z" fill="#EE8302"/>
</svg>
