<svg width="22" height="22" viewBox="0 0 22 22" fill="none" xmlns="http://www.w3.org/2000/svg">
<rect width="22" height="22" fill="black"/>
<path fill-rule="evenodd" clip-rule="evenodd" d="M16.1135 9.90599C16.2096 7.86419 15.3582 6.63952 13.4601 6.08903C13.0732 5.97679 12.1782 5.93132 9.63078 5.89455C7.80233 5.86815 6.27329 5.88038 6.233 5.92174C6.19262 5.963 6.15967 8.2775 6.15967 11.065V16.1332H7.67522H9.19078V14.7643V13.3954H10.6002H12.0097L12.7269 14.7398L13.4441 16.0843L14.9467 16.1114C16.3519 16.1366 16.445 16.1271 16.3831 15.9647C16.3468 15.8692 15.9457 15.123 15.4917 14.3068C15.0378 13.4904 14.6663 12.7983 14.6663 12.7687C14.6663 12.7392 14.8634 12.5334 15.1042 12.3113C15.7679 11.6995 16.0622 10.9984 16.1135 9.90599ZM9.19078 11.0487V9.7776V8.50649H10.6117C12.1125 8.50649 12.4969 8.58765 12.8445 8.97788C13.108 9.27375 13.1523 9.9448 12.9362 10.3643C12.6372 10.9441 12.286 11.0484 10.633 11.0485L9.19078 11.0487Z" fill="white"/>
<circle cx="16.0843" cy="5.13336" r="1.02667" fill="#F41240"/>
</svg>
