<svg width="22" height="22" viewBox="0 0 22 22" fill="none" xmlns="http://www.w3.org/2000/svg">
<path d="M3.26303 11.2806L6.7116 12.5665L8.05595 16.8918C8.1144 17.184 8.4651 17.2425 8.6989 17.0671L10.6278 15.489C10.8031 15.3136 11.0954 15.3136 11.3292 15.489L14.7777 18.0023C15.0115 18.1777 15.3622 18.0608 15.4207 17.7685L17.9925 5.49399C18.0509 5.20174 17.7587 4.90949 17.4664 5.02639L3.26303 10.5207C2.91232 10.6376 2.91232 11.1637 3.26303 11.2806ZM7.8806 11.9235L14.6608 7.77355C14.7777 7.7151 14.8946 7.89045 14.7777 7.9489L9.22495 13.151C9.0496 13.3263 8.87425 13.5601 8.87425 13.8524L8.6989 15.2552C8.6989 15.4305 8.40665 15.489 8.3482 15.2552L7.64679 12.6834C7.47144 12.3911 7.58835 12.0404 7.8806 11.9235Z" fill="#347ECA"/>
</svg>
