<svg width="22" height="22" viewBox="0 0 22 22" fill="none" xmlns="http://www.w3.org/2000/svg">
<g clip-path="url(#clip0_3597_9)">
<path d="M10.5486 22H11.4646C16.4375 22 18.9244 22 20.4688 20.4556C22.0132 18.9112 22 16.4252 22 11.4646V10.5354C22 5.57568 22 3.08881 20.4688 1.54441C18.9376 4.45843e-06 16.4375 0 11.4646 0H10.5486C5.5748 0 3.0888 4.45843e-06 1.5444 1.54441C-9.17912e-07 3.08881 0 5.57392 0 10.5354V11.4646C0 16.4252 -9.17912e-07 18.9112 1.5444 20.4556C3.0888 22 5.5748 22 10.5486 22Z" fill="#0077FF"/>
<path d="M11.8051 15.8618C6.84458 15.8618 3.8341 12.4201 3.71706 6.70097H6.22946C6.30778 10.9021 8.21914 12.685 9.68435 13.0484V6.70097H12.0929V10.3257C13.5062 10.1691 14.9846 8.51993 15.4827 6.70097H17.8507C17.4715 8.93881 15.8619 10.5879 14.7232 11.2682C15.8619 11.8182 17.6941 13.2579 18.4007 15.8618H15.7968C15.2468 14.1211 13.8987 12.773 12.0929 12.5899V15.8618H11.8051Z" fill="white"/>
</g>
<defs>
<clipPath id="clip0_3597_9">
<rect width="22" height="22" fill="white"/>
</clipPath>
</defs>
</svg>
